<?xml version="1.0" encoding="UTF-8" standalone="no"?>
<!DOCTYPE svg PUBLIC "-//W3C//DTD SVG 1.1//EN" "http://www.w3.org/Graphics/SVG/1.1/DTD/svg11.dtd">
<svg width="100%" height="100%" viewBox="0 0 2548 233" version="1.1" xmlns="http://www.w3.org/2000/svg" xmlns:xlink="http://www.w3.org/1999/xlink" xml:space="preserve" xmlns:serif="http://www.serif.com/" style="fill-rule:evenodd;clip-rule:evenodd;stroke-linejoin:round;stroke-miterlimit:2;">
    <g transform="matrix(1,0,0,1,-3660.748427,-493.440572)">
        <g id="path6" transform="matrix(3.080333,0,0,3.080333,1827.742958,-349.339621)">
            <path d="M787.406,339.223L795.249,349.236L812.973,349.236L804.928,339.223L787.406,339.223Z" style="fill:rgb(255,102,0);fill-rule:nonzero;"/>
        </g>
        <g id="path7" transform="matrix(3.080333,0,0,3.080333,1827.742958,-349.339621)">
            <rect x="759.864" y="339.348" width="13.656" height="9.888" style="fill-rule:nonzero;"/>
        </g>
        <g id="path4" transform="matrix(3.080333,0,0,3.080333,1827.742958,-349.339621)">
            <path d="M759.864,290.063L759.864,329.275L773.52,329.275L773.52,326.471L775.708,324.287L779.518,329.15L796.835,329.15L785.417,314.941L811.092,290.117L792.763,290.117L773.52,309.238L773.52,290.063L759.864,290.063Z" style="fill-rule:nonzero;"/>
        </g>
        <g id="path1" transform="matrix(3.080333,0,0,3.080333,1827.742958,-349.339621)">
            <path d="M796.835,329.15L785.418,314.941L811.092,290.117L792.762,290.117L773.521,309.236L773.521,290.062L759.865,290.062L759.865,349.234L773.521,349.234L773.521,326.473L775.707,324.287L779.517,329.151" style="fill:none;fill-rule:nonzero;"/>
        </g>
        <g id="path5" transform="matrix(3.080333,0,0,3.080333,1827.742958,-349.339621)">
            <path d="M804.928,339.222L796.835,329.15" style="fill:none;fill-rule:nonzero;"/>
        </g>
        <g id="path3" transform="matrix(3.080333,0,0,3.080333,1827.742958,-349.339621)">
            <path d="M787.406,339.222L795.25,349.234L812.973,349.234L804.928,339.222" style="fill:none;fill-rule:nonzero;"/>
        </g>
        <g id="path2" transform="matrix(3.080333,0,0,3.080333,1827.742958,-349.339621)">
            <path d="M779.517,329.151L787.406,339.222" style="fill:none;fill-rule:nonzero;"/>
        </g>
        <g id="text1" transform="matrix(3.080333,0,0,3.080333,1900.975703,-349.339621)">
            <path d="M584.949,316.545L584.949,318.582L584.949,349.234L571.293,349.234L571.293,290.117L584.949,290.117L584.949,296.879C587.397,294.334 589.574,292.587 591.478,291.635C593.46,290.623 595.808,290.117 598.519,290.117C602.12,290.117 605.883,291.29 609.808,293.637L603.556,306.141C600.966,304.279 598.436,303.348 595.968,303.348C589.383,303.348 585.71,307.747 584.949,316.545Z"/>
        </g>
        <g id="rect13" transform="matrix(-3.080333,0,0,-3.080333,1708.583034,-349.339621)">
            <rect x="-1084.537" y="-318.989" width="13.428" height="28.926"/>
        </g>
        <g id="path20" transform="matrix(3.080333,0,0,3.080333,1708.583034,-349.339621)">
            <path d="M1100.58,289.518C1084.413,289.518 1071.109,302.822 1071.109,318.989C1071.109,318.99 1071.109,318.99 1071.109,318.99C1071.11,335.157 1084.413,348.46 1100.58,348.461C1116.748,348.461 1130.052,335.158 1130.052,318.99C1130.053,318.99 1130.053,318.99 1130.053,318.989C1130.053,302.822 1116.749,289.518 1100.581,289.518C1100.581,289.518 1100.58,289.518 1100.58,289.518ZM1100.58,302.947C1109.381,302.947 1116.623,310.189 1116.623,318.99C1116.623,327.791 1109.381,335.033 1100.58,335.033C1091.779,335.033 1084.537,327.791 1084.537,318.99C1084.537,310.189 1091.779,302.947 1100.58,302.947Z" style="fill-rule:nonzero;"/>
        </g>
        <g id="rect39" transform="matrix(-3.080333,0,0,-3.080333,1708.583034,-349.339621)">
            <rect x="-1084.537" y="-283.673" width="13.428" height="10.073" style="fill:rgb(255,102,0);"/>
        </g>
        <g id="path14" transform="matrix(3.080333,0,0,3.080333,1881.030624,-349.339621)">
            <path d="M674.027,304.322L663.801,314.549C664.408,316.219 664.728,317.981 664.75,319.758C664.75,319.758 664.75,319.758 664.75,319.758C664.75,328.437 657.609,335.578 648.93,335.578C648.93,335.578 648.93,335.578 648.93,335.578C647.152,335.557 645.391,335.236 643.721,334.629L633.514,344.836C638.147,347.698 643.484,349.221 648.93,349.234C648.93,349.234 648.93,349.234 648.931,349.234C665.098,349.234 678.402,335.931 678.402,319.764C678.401,314.311 676.886,308.965 674.027,304.322Z" style="fill-rule:nonzero;"/>
        </g>
        <g id="path13" transform="matrix(3.080333,0,0,3.080333,1881.030624,-349.339621)">
            <path d="M648.93,290.291C632.762,290.292 619.459,303.595 619.459,319.763C619.459,319.763 619.459,319.763 619.459,319.764C619.473,325.21 620.995,330.547 623.857,335.18L634.061,324.975C633.452,323.302 633.131,321.538 633.109,319.758C633.11,311.08 640.252,303.939 648.93,303.939C650.71,303.96 652.475,304.281 654.148,304.889L664.371,294.666C659.728,291.808 654.382,290.293 648.93,290.291Z" style="fill:rgb(255,102,0);fill-rule:nonzero;"/>
        </g>
        <g id="path17" transform="matrix(3.080333,0,0,3.080333,1858.210855,-349.339621)">
            <path d="M718.133,290.062C701.965,290.063 688.662,303.367 688.662,319.534C688.662,319.534 688.662,319.535 688.662,319.535C688.663,335.702 701.966,349.005 718.133,349.006C731.707,348.974 743.587,339.568 746.732,326.363L732.078,326.363C729.543,331.765 724.1,335.239 718.133,335.262C709.647,335.261 702.665,328.279 702.664,319.793C702.664,311.307 709.646,304.323 718.133,304.322C723.915,304.323 729.234,307.565 731.883,312.705L746.797,312.705C743.646,299.478 731.73,290.065 718.133,290.062Z" style="fill-rule:nonzero;"/>
        </g>
        <g id="path25" transform="matrix(3.080333,0,0,3.080333,1759.852256,-349.339621)">
            <path d="M967.446,290.033L967.446,322.872C967.446,332.35 971.186,337.089 978.667,337.089C986.147,337.089 989.887,332.35 989.887,322.872L989.887,290.033L1003.105,290.033L1003.105,323.166C1003.105,327.748 1002.537,331.704 1001.402,335.033C1000.305,338.01 998.405,340.692 995.703,343.081C991.238,346.959 985.559,348.897 978.667,348.897C971.813,348.897 966.154,346.959 961.689,343.081C958.947,340.692 957.009,338.01 955.873,335.033C954.776,332.37 954.228,328.414 954.228,323.166L954.228,290.033L967.446,290.033Z" style="fill-rule:nonzero;"/>
        </g>
        <g id="circle22" transform="matrix(3.080333,0,0,3.080333,1770.562212,-349.339621)">
            <path d="M914.856,289.924C898.689,289.925 885.385,303.229 885.385,319.396C885.385,319.396 885.385,319.397 885.385,319.397C885.386,335.564 898.689,348.867 914.856,348.868C914.856,348.868 914.856,348.868 914.857,348.868C931.024,348.868 944.328,335.564 944.328,319.397C944.328,319.397 944.328,319.396 944.328,319.396C944.328,303.228 931.024,289.924 914.857,289.924C914.856,289.924 914.856,289.924 914.856,289.924ZM914.856,303.354C923.657,303.354 930.899,310.596 930.899,319.397C930.899,328.198 923.657,335.44 914.856,335.44C906.055,335.44 898.813,328.198 898.813,319.397C898.813,310.596 906.055,303.354 914.856,303.354Z" style="fill-rule:nonzero;"/>
        </g>
        <g id="path26" transform="matrix(3.080333,0,0,3.080333,3109.761254,-349.505611)">
            <path d="M584.949,316.545L584.949,318.431L584.949,348.922L571.293,348.922L571.293,290.117L584.949,290.117L584.949,296.879C587.397,294.334 589.574,292.587 591.478,291.635C593.46,290.623 595.808,290.117 598.519,290.117C602.12,290.117 605.883,291.29 609.808,293.637L603.556,306.141C600.966,304.279 598.436,303.348 595.968,303.348C589.383,303.348 585.71,307.747 584.949,316.545Z"/>
        </g>
        <g id="path38" transform="matrix(3.080333,0,0,3.080333,1591.277108,-349.339621)">
            <path d="M1495.126,300.455L1484.324,306.204C1482.621,302.72 1480.51,300.977 1477.994,300.977C1476.794,300.977 1475.767,301.384 1474.916,302.197C1474.064,302.971 1473.638,303.978 1473.638,305.217C1473.638,307.385 1476.155,309.534 1481.188,311.663C1488.118,314.645 1492.784,317.394 1495.184,319.91C1497.585,322.427 1498.785,325.815 1498.785,330.074C1498.785,335.533 1496.772,340.102 1492.745,343.78C1488.835,347.264 1484.111,349.007 1478.575,349.007C1469.089,349.007 1462.371,344.38 1458.422,335.126L1469.573,329.958C1471.121,332.668 1472.302,334.391 1473.115,335.126C1474.703,336.598 1476.6,337.333 1478.807,337.333C1483.221,337.333 1485.428,335.32 1485.428,331.293C1485.428,328.97 1483.724,326.802 1480.317,324.789C1479,324.131 1477.684,323.492 1476.368,322.872C1475.051,322.253 1473.716,321.614 1472.36,320.956C1468.566,319.097 1465.894,317.239 1464.346,315.38C1462.371,313.019 1461.384,309.979 1461.384,306.262C1461.384,301.345 1463.068,297.28 1466.437,294.066C1469.882,290.853 1474.064,289.246 1478.981,289.246C1486.221,289.246 1491.603,292.982 1495.126,300.455Z" style="fill-rule:nonzero;"/>
        </g>
        <g id="path37" transform="matrix(3.080333,0,0,3.080333,1604.709962,-349.339621)">
            <path d="M1447.551,300.455L1436.748,306.204C1435.045,302.72 1432.935,300.977 1430.418,300.977C1429.218,300.977 1428.192,301.384 1427.34,302.197C1426.488,302.971 1426.062,303.978 1426.062,305.217C1426.062,307.385 1428.579,309.534 1433.612,311.663C1440.543,314.645 1445.208,317.394 1447.609,319.91C1450.009,322.427 1451.21,325.815 1451.21,330.074C1451.21,335.533 1449.196,340.102 1445.17,343.78C1441.259,347.264 1436.536,349.007 1430.999,349.007C1421.513,349.007 1414.796,344.38 1410.846,335.126L1421.997,329.958C1423.546,332.668 1424.727,334.391 1425.54,335.126C1427.127,336.598 1429.024,337.333 1431.231,337.333C1435.645,337.333 1437.852,335.32 1437.852,331.293C1437.852,328.97 1436.148,326.802 1432.741,324.789C1431.425,324.131 1430.109,323.492 1428.792,322.872C1427.476,322.253 1426.14,321.614 1424.785,320.956C1420.99,319.097 1418.319,317.239 1416.77,315.38C1414.796,313.019 1413.808,309.979 1413.808,306.262C1413.808,301.345 1415.493,297.28 1418.861,294.066C1422.307,290.853 1426.488,289.246 1431.405,289.246C1438.646,289.246 1444.028,292.982 1447.551,300.455Z" style="fill-rule:nonzero;"/>
        </g>
        <g transform="matrix(1,0,0,1,3329.387221,270)">
            <g id="path34" transform="matrix(3.080333,0,0,3.080333,-1697.506297,-619.339621)">
                <path d="M1297.062,296.948L1297.062,321.308C1297.062,314.168 1297.991,309.167 1299.846,306.304C1301.741,303.401 1304.946,301.95 1309.461,301.95C1313.613,301.95 1316.475,303.048 1318.047,305.245C1319.66,307.403 1320.467,311.305 1320.467,316.954L1320.467,348.963L1334.133,348.963L1334.133,313.835C1334.133,305.754 1332.48,299.928 1329.174,296.359C1325.344,292.161 1320.002,290.062 1313.149,290.062C1307.182,290.062 1301.82,292.358 1297.062,296.948Z" style="fill-rule:nonzero;"/>
            </g>
            <g id="path41" transform="matrix(3.080333,0,0,3.080333,-1697.506297,-619.339621)">
                <rect x="1283.729" y="288.775" width="13.666" height="58.9" style="fill-rule:nonzero;"/>
            </g>
        </g>
        <g transform="matrix(1,0,0,1,3354.761102,270)">
            <g id="path32" transform="matrix(3.080333,0,0,3.080333,-1697.506297,-619.339621)">
                <rect x="1254.672" y="304.526" width="13.423" height="44.437" style="fill-rule:nonzero;"/>
            </g>
            <g id="path47" transform="matrix(3.080333,0,0,3.080333,-1697.506297,-619.339621)">
                <rect x="1254.672" y="288.775" width="13.423" height="11.109" style="fill-rule:nonzero;"/>
            </g>
        </g>
        <g id="path31" transform="matrix(3.080333,0,0,3.080333,1676.292503,-349.339621)">
            <path d="M1238.46,301.119L1227.805,306.79C1226.125,303.353 1224.044,301.634 1221.562,301.634C1220.378,301.634 1219.366,302.035 1218.526,302.837C1217.686,303.601 1217.266,304.594 1217.266,305.816C1217.266,307.954 1219.748,310.074 1224.712,312.174C1231.548,315.115 1236.15,317.826 1238.517,320.308C1240.885,322.791 1242.069,326.132 1242.069,330.333C1242.069,335.717 1240.083,340.223 1236.111,343.851C1232.254,347.288 1227.595,349.007 1222.135,349.007C1212.778,349.007 1206.153,344.443 1202.258,335.316L1213.256,330.218C1214.783,332.891 1215.948,334.591 1216.75,335.316C1218.316,336.767 1220.187,337.493 1222.364,337.493C1226.717,337.493 1228.894,335.507 1228.894,331.536C1228.894,329.244 1227.214,327.106 1223.853,325.12C1222.554,324.471 1221.256,323.841 1219.958,323.23C1218.659,322.619 1217.342,321.989 1216.005,321.339C1212.263,319.506 1209.628,317.673 1208.1,315.84C1206.153,313.511 1205.179,310.513 1205.179,306.847C1205.179,301.997 1206.84,297.987 1210.163,294.818C1213.561,291.648 1217.686,290.063 1222.536,290.063C1229.677,290.063 1234.985,293.748 1238.46,301.119Z" style="fill-rule:nonzero;"/>
        </g>
        <g id="rect38" transform="matrix(3.080333,0,0,3.080333,1621.182241,-349.339621)">
            <path d="M1372.525,289.924C1364.868,289.924 1357.505,292.908 1352.009,298.239C1346.287,303.788 1343.054,311.426 1343.055,319.396C1343.055,335.563 1356.358,348.867 1372.525,348.867C1385.268,348.864 1396.631,340.597 1400.557,328.475L1385.672,328.475C1382.699,332.807 1377.78,335.413 1372.525,335.439C1365.469,335.404 1359.225,330.716 1357.223,323.949L1376.268,324.182L1401.6,324.182C1401.862,322.6 1401.996,321 1401.998,319.396C1401.998,311.739 1399.014,304.375 1393.683,298.878C1388.134,293.156 1380.495,289.924 1372.525,289.924ZM1372.525,303.354C1379.566,303.389 1385.798,308.056 1387.814,314.801L1357.348,314.43C1359.484,307.868 1365.625,303.387 1372.525,303.354Z" style="fill-rule:nonzero;"/>
        </g>
        <g id="path40" transform="matrix(3.080333,0,0,3.080333,1697.014836,-349.339621)">
            <path d="M1153.449,290.033L1153.449,322.872C1153.449,332.35 1157.189,337.089 1164.669,337.089C1172.149,337.089 1175.89,332.35 1175.89,322.872L1175.89,290.033L1189.108,290.033L1189.108,323.166C1189.108,327.748 1188.54,331.704 1187.404,335.033C1186.307,338.01 1184.408,340.692 1181.706,343.081C1177.241,346.959 1171.562,348.897 1164.669,348.897C1157.815,348.897 1152.156,346.959 1147.691,343.081C1144.95,340.692 1143.011,338.01 1141.876,335.033C1140.779,332.37 1140.231,328.414 1140.231,323.166L1140.231,290.033L1153.449,290.033Z" style="fill-rule:nonzero;"/>
        </g>
        <g id="text21" transform="matrix(3.080333,0,0,3.080333,1818.772105,-349.430121)">
            <path d="M846.696,337.16L853.927,323.205L836.29,290.062L820.683,290.062L846.696,337.16Z" style="fill-rule:nonzero;"/>
        </g>
        <g id="rect391" serif:id="rect39" transform="matrix(-3.080333,0,0,-3.080333,1047.375199,-148.852053)">
            <path d="M-1091.985,-283.673L-1071.109,-283.673L-1071.109,-273.6L-1082.612,-273.6L-1083.465,-272.018L-1083.285,-271.696L-1090.516,-257.853L-1090.699,-258.196L-1107.324,-224.977L-1122.514,-224.977L-1091.985,-283.673Z" style="fill:rgb(255,102,0);"/>
        </g>
    </g>
</svg>
